<?xml version="1.0" encoding="UTF-8"?>
<!DOCTYPE svg PUBLIC "-//W3C//DTD SVG 1.1//EN" "http://www.w3.org/Graphics/SVG/1.1/DTD/svg11.dtd">
<svg xmlns="http://www.w3.org/2000/svg" version="1.1" width="60px" height="60px" style="shape-rendering:geometricPrecision; text-rendering:geometricPrecision; image-rendering:optimizeQuality; fill-rule:evenodd; clip-rule:evenodd" xmlns:xlink="http://www.w3.org/1999/xlink">
<g><path style="opacity:1" fill="#020101" d="M -0.5,-0.5 C 6.83333,-0.5 14.1667,-0.5 21.5,-0.5C 19.036,0.56651 16.7026,1.89984 14.5,3.5C 11.8996,4.91878 9.39961,6.58545 7,8.5C 3.9539,12.6017 1.4539,16.935 -0.5,21.5C -0.5,14.1667 -0.5,6.83333 -0.5,-0.5 Z"/></g>
<g><path style="opacity:1" fill="#fdf9f9" d="M 21.5,-0.5 C 26.8333,-0.5 32.1667,-0.5 37.5,-0.5C 48.1341,2.8007 55.1341,9.8007 58.5,20.5C 57.7784,20.9175 57.2784,21.5842 57,22.5C 55.883,21.0506 55.2163,19.3839 55,17.5C 54.6667,18.1667 54.3333,18.8333 54,19.5C 53.8155,14.4882 51.3155,11.4882 46.5,10.5C 46.1667,10.5 45.8333,10.5 45.5,10.5C 43.3511,8.25421 40.6844,6.75421 37.5,6C 32.9147,4.77478 28.248,4.27478 23.5,4.5C 20.5569,4.64652 17.7236,5.31319 15,6.5C 14.5,6.33333 14,6.16667 13.5,6C 14.2524,5.32924 14.5858,4.4959 14.5,3.5C 16.7026,1.89984 19.036,0.56651 21.5,-0.5 Z"/></g>
<g><path style="opacity:1" fill="#020102" d="M 37.5,-0.5 C 44.8333,-0.5 52.1667,-0.5 59.5,-0.5C 59.5,6.83333 59.5,14.1667 59.5,21.5C 58.8333,21.5 58.5,21.1667 58.5,20.5C 55.1341,9.8007 48.1341,2.8007 37.5,-0.5 Z"/></g>
<g><path style="opacity:1" fill="#dd241e" d="M 23.5,4.5 C 28.248,4.27478 32.9147,4.77478 37.5,6C 40.6844,6.75421 43.3511,8.25421 45.5,10.5C 43.8561,10.2865 42.3561,10.6198 41,11.5C 39.513,10.7471 39.3463,9.9138 40.5,9C 34.0244,6.85721 27.3577,6.02388 20.5,6.5C 21.5,5.83333 22.5,5.16667 23.5,4.5 Z"/></g>
<g><path style="opacity:1" fill="#f2140e" d="M 20.5,6.5 C 27.3577,6.02388 34.0244,6.85721 40.5,9C 39.3463,9.9138 39.513,10.7471 41,11.5C 42.3561,10.6198 43.8561,10.2865 45.5,10.5C 45.8333,10.5 46.1667,10.5 46.5,10.5C 49.5173,13.1977 51.5173,16.5311 52.5,20.5C 49.7273,17.6504 46.7273,15.6504 43.5,14.5C 41.6176,18.4151 42.6176,21.2484 46.5,23C 43.9976,23.1712 41.331,23.3379 38.5,23.5C 39.1465,21.8439 39.8131,20.1772 40.5,18.5C 38.7048,14.6574 36.5381,14.6574 34,18.5C 32.478,20.7409 31.1447,23.0742 30,25.5C 27.7098,22.4201 25.5431,19.2534 23.5,16C 21.3047,15.2883 19.6381,15.9549 18.5,18C 20.716,22.2687 23.0494,26.4354 25.5,30.5C 23.5699,34.2734 21.4033,37.9401 19,41.5C 18.7625,44.6497 20.2625,45.8164 23.5,45C 25.3771,42.079 27.3771,39.2456 29.5,36.5C 31.9923,39.1631 34.3256,41.9964 36.5,45C 38.92,45.9149 40.2534,45.0815 40.5,42.5C 40.0163,40.1992 39.0163,38.1992 37.5,36.5C 38.5,36.5 39.5,36.5 40.5,36.5C 41.1667,38.8333 41.8333,41.1667 42.5,43.5C 44.5,43.5 46.5,43.5 48.5,43.5C 48.9477,40.8282 50.281,38.8282 52.5,37.5C 50.5,45.5 45.5,50.5 37.5,52.5C 39.8336,51.1791 41.5003,49.6791 42.5,48C 41.5838,47.6258 40.7504,47.1258 40,46.5C 37.8416,47.8259 36.0082,49.4925 34.5,51.5C 32.7299,50.1804 32.3966,48.6804 33.5,47C 30.9538,45.1344 28.7871,45.6344 27,48.5C 24.0964,46.7732 20.9297,46.1065 17.5,46.5C 17.7771,43.5525 17.4438,40.7191 16.5,38C 18.5662,35.6558 20.5662,33.3225 22.5,31C 22.1377,29.7753 21.6377,28.6086 21,27.5C 20.0201,29.0589 19.1867,30.7256 18.5,32.5C 17.7132,31.7579 17.0465,30.9246 16.5,30C 19.7909,27.668 20.2909,24.8347 18,21.5C 17.5488,23.9288 16.7155,24.0955 15.5,22C 16.92,19.5346 17.2533,17.0346 16.5,14.5C 15.2798,15.7111 14.1131,15.7111 13,14.5C 12.0754,15.0465 11.2421,15.7132 10.5,16.5C 11.5481,18.4559 12.0481,20.4559 12,22.5C 10.3333,21.1667 8.66667,21.1667 7,22.5C 6.50115,26.4862 6.33449,30.4862 6.5,34.5C 5.51836,31.0381 5.18503,27.3714 5.5,23.5C 7.31972,15.0143 12.3197,9.34768 20.5,6.5 Z"/></g>
<g><path style="opacity:1" fill="#f90503" d="M 37.5,52.5 C 32.4889,52.6659 27.4889,52.4993 22.5,52C 19.27,50.1979 15.9367,48.6979 12.5,47.5C 11.8333,47.1667 11.1667,46.8333 10.5,46.5C 8.35648,43.878 7.02315,40.878 6.5,37.5C 6.5,36.5 6.5,35.5 6.5,34.5C 6.33449,30.4862 6.50115,26.4862 7,22.5C 8.66667,21.1667 10.3333,21.1667 12,22.5C 12.0481,20.4559 11.5481,18.4559 10.5,16.5C 11.2421,15.7132 12.0754,15.0465 13,14.5C 14.1131,15.7111 15.2798,15.7111 16.5,14.5C 17.2533,17.0346 16.92,19.5346 15.5,22C 16.7155,24.0955 17.5488,23.9288 18,21.5C 20.2909,24.8347 19.7909,27.668 16.5,30C 17.0465,30.9246 17.7132,31.7579 18.5,32.5C 19.1867,30.7256 20.0201,29.0589 21,27.5C 21.6377,28.6086 22.1377,29.7753 22.5,31C 20.5662,33.3225 18.5662,35.6558 16.5,38C 17.4438,40.7191 17.7771,43.5525 17.5,46.5C 20.9297,46.1065 24.0964,46.7732 27,48.5C 28.7871,45.6344 30.9538,45.1344 33.5,47C 32.3966,48.6804 32.7299,50.1804 34.5,51.5C 36.0082,49.4925 37.8416,47.8259 40,46.5C 40.7504,47.1258 41.5838,47.6258 42.5,48C 41.5003,49.6791 39.8336,51.1791 37.5,52.5 Z"/></g>
<g><path style="opacity:1" fill="#f80905" d="M 52.5,20.5 C 52.5,26.1667 52.5,31.8333 52.5,37.5C 50.281,38.8282 48.9477,40.8282 48.5,43.5C 46.5,43.5 44.5,43.5 42.5,43.5C 41.8333,41.1667 41.1667,38.8333 40.5,36.5C 39.5,36.5 38.5,36.5 37.5,36.5C 36.1769,34.5286 34.8435,32.5286 33.5,30.5C 34.9431,27.9235 36.6098,25.5901 38.5,23.5C 41.331,23.3379 43.9976,23.1712 46.5,23C 42.6176,21.2484 41.6176,18.4151 43.5,14.5C 46.7273,15.6504 49.7273,17.6504 52.5,20.5 Z"/></g>
<g><path style="opacity:1" fill="#fef2f1" d="M 38.5,23.5 C 36.6098,25.5901 34.9431,27.9235 33.5,30.5C 34.8435,32.5286 36.1769,34.5286 37.5,36.5C 39.0163,38.1992 40.0163,40.1992 40.5,42.5C 40.2534,45.0815 38.92,45.9149 36.5,45C 34.3256,41.9964 31.9923,39.1631 29.5,36.5C 27.3771,39.2456 25.3771,42.079 23.5,45C 20.2625,45.8164 18.7625,44.6497 19,41.5C 21.4033,37.9401 23.5699,34.2734 25.5,30.5C 23.0494,26.4354 20.716,22.2687 18.5,18C 19.6381,15.9549 21.3047,15.2883 23.5,16C 25.5431,19.2534 27.7098,22.4201 30,25.5C 31.1447,23.0742 32.478,20.7409 34,18.5C 36.5381,14.6574 38.7048,14.6574 40.5,18.5C 39.8131,20.1772 39.1465,21.8439 38.5,23.5 Z"/></g>
<g><path style="opacity:1" fill="#ce423b" d="M 5.5,23.5 C 5.18503,27.3714 5.51836,31.0381 6.5,34.5C 6.5,35.5 6.5,36.5 6.5,37.5C 4.9532,35.1934 4.28653,32.5267 4.5,29.5C 4.50465,27.3035 4.83798,25.3035 5.5,23.5 Z"/></g>
<g><path style="opacity:1" fill="#d9251f" d="M 52.5,20.5 C 53.973,23.0169 54.6397,25.8502 54.5,29C 54.6397,32.1498 53.973,34.9831 52.5,37.5C 52.5,31.8333 52.5,26.1667 52.5,20.5 Z"/></g>
<g><path style="opacity:1" fill="#fdf7f6" d="M 46.5,10.5 C 51.3155,11.4882 53.8155,14.4882 54,19.5C 54.3333,18.8333 54.6667,18.1667 55,17.5C 55.2163,19.3839 55.883,21.0506 57,22.5C 57.2784,21.5842 57.7784,20.9175 58.5,20.5C 58.5,21.1667 58.8333,21.5 59.5,21.5C 59.5,26.8333 59.5,32.1667 59.5,37.5C 57.5461,42.065 55.0461,46.3983 52,50.5C 47.6565,54.4151 42.8232,57.4151 37.5,59.5C 32.1667,59.5 26.8333,59.5 21.5,59.5C 18.5919,58.0459 15.5919,56.5459 12.5,55C 11.6195,54.2917 10.9528,53.4584 10.5,52.5C 9.42708,50.3469 9.42708,48.3469 10.5,46.5C 11.1667,46.8333 11.8333,47.1667 12.5,47.5C 19.7974,54.5836 28.1307,56.2502 37.5,52.5C 45.5,50.5 50.5,45.5 52.5,37.5C 53.973,34.9831 54.6397,32.1498 54.5,29C 54.6397,25.8502 53.973,23.0169 52.5,20.5C 51.5173,16.5311 49.5173,13.1977 46.5,10.5 Z"/></g>
<g><path style="opacity:1" fill="#020102" d="M -0.5,37.5 C 0.95406,40.4081 2.45406,43.4081 4,46.5C 5.5355,49.2937 7.70216,51.2937 10.5,52.5C 10.9528,53.4584 11.6195,54.2917 12.5,55C 15.5919,56.5459 18.5919,58.0459 21.5,59.5C 14.1667,59.5 6.83333,59.5 -0.5,59.5C -0.5,52.1667 -0.5,44.8333 -0.5,37.5 Z"/></g>
<g><path style="opacity:1" fill="#000100" d="M 59.5,37.5 C 59.5,44.8333 59.5,52.1667 59.5,59.5C 52.1667,59.5 44.8333,59.5 37.5,59.5C 42.8232,57.4151 47.6565,54.4151 52,50.5C 55.0461,46.3983 57.5461,42.065 59.5,37.5 Z"/></g>
<g><path style="opacity:1" fill="#fef7f6" d="M 14.5,3.5 C 14.5858,4.4959 14.2524,5.32924 13.5,6C 14,6.16667 14.5,6.33333 15,6.5C 17.7236,5.31319 20.5569,4.64652 23.5,4.5C 22.5,5.16667 21.5,5.83333 20.5,6.5C 12.3197,9.34768 7.31972,15.0143 5.5,23.5C 4.83798,25.3035 4.50465,27.3035 4.5,29.5C 4.28653,32.5267 4.9532,35.1934 6.5,37.5C 7.02315,40.878 8.35648,43.878 10.5,46.5C 9.42708,48.3469 9.42708,50.3469 10.5,52.5C 7.70216,51.2937 5.5355,49.2937 4,46.5C 2.45406,43.4081 0.95406,40.4081 -0.5,37.5C -0.5,32.1667 -0.5,26.8333 -0.5,21.5C 1.4539,16.935 3.9539,12.6017 7,8.5C 9.39961,6.58545 11.8996,4.91878 14.5,3.5 Z"/></g>
<g><path style="opacity:1" fill="#db2721" d="M 12.5,47.5 C 15.9367,48.6979 19.27,50.1979 22.5,52C 27.4889,52.4993 32.4889,52.6659 37.5,52.5C 28.1307,56.2502 19.7974,54.5836 12.5,47.5 Z"/></g>
</svg>
