<?xml version="1.0" encoding="UTF-8"?>
<!DOCTYPE svg PUBLIC "-//W3C//DTD SVG 1.1//EN" "http://www.w3.org/Graphics/SVG/1.1/DTD/svg11.dtd">
<svg xmlns="http://www.w3.org/2000/svg" version="1.1" width="60px" height="60px" style="shape-rendering:geometricPrecision; text-rendering:geometricPrecision; image-rendering:optimizeQuality; fill-rule:evenodd; clip-rule:evenodd" xmlns:xlink="http://www.w3.org/1999/xlink">
<g><path style="opacity:1" fill="#fcf4f0" d="M 21.5,-0.5 C 26.8333,-0.5 32.1667,-0.5 37.5,-0.5C 37.5,-0.166667 37.5,0.166667 37.5,0.5C 40.7679,3.57196 43.7679,6.9053 46.5,10.5C 46.1667,10.5 45.8333,10.5 45.5,10.5C 39.0684,5.55858 31.735,3.72524 23.5,5C 22.2625,5.23209 21.2625,5.73209 20.5,6.5C 13.5554,9.1122 8.55535,13.7789 5.5,20.5C 5.62041,18.8014 5.95374,17.1347 6.5,15.5C 6.16667,14.8333 5.83333,14.1667 5.5,13.5C 4.81815,14.2427 4.15149,14.9094 3.5,15.5C 4.77861,11.698 7.11194,8.53133 10.5,6C 14.0167,3.6738 17.6834,1.84047 21.5,0.5C 21.5,0.166667 21.5,-0.166667 21.5,-0.5 Z"/></g>
<g><path style="opacity:1" fill="#3e5f01" d="M -0.5,-0.5 C 6.83333,-0.5 14.1667,-0.5 21.5,-0.5C 21.5,-0.166667 21.5,0.166667 21.5,0.5C 14.5,0.5 7.5,0.5 0.5,0.5C 0.5,7.16667 0.5,13.8333 0.5,20.5C 0.5,21.1667 0.166667,21.5 -0.5,21.5C -0.5,14.1667 -0.5,6.83333 -0.5,-0.5 Z"/></g>
<g><path style="opacity:1" fill="#76b50a" d="M 37.5,0.5 C 37.5,0.166667 37.5,-0.166667 37.5,-0.5C 44.8333,-0.5 52.1667,-0.5 59.5,-0.5C 59.5,6.83333 59.5,14.1667 59.5,21.5C 55.0079,11.5086 47.6746,4.50864 37.5,0.5 Z"/></g>
<g><path style="opacity:1" fill="#7dbf0f" d="M 21.5,0.5 C 17.6834,1.84047 14.0167,3.6738 10.5,6C 7.11194,8.53133 4.77861,11.698 3.5,15.5C 2.06521,16.9133 1.06521,18.58 0.5,20.5C 0.5,13.8333 0.5,7.16667 0.5,0.5C 7.5,0.5 14.5,0.5 21.5,0.5 Z"/></g>
<g><path style="opacity:1" fill="#dd241e" d="M 45.5,10.5 C 43.8561,10.2865 42.3561,10.6198 41,11.5C 39.513,10.7471 39.3463,9.9138 40.5,9C 34.0244,6.85721 27.3577,6.02388 20.5,6.5C 21.2625,5.73209 22.2625,5.23209 23.5,5C 31.735,3.72524 39.0684,5.55858 45.5,10.5 Z"/></g>
<g><path style="opacity:1" fill="#f2120d" d="M 20.5,6.5 C 27.3577,6.02388 34.0244,6.85721 40.5,9C 39.3463,9.9138 39.513,10.7471 41,11.5C 42.3561,10.6198 43.8561,10.2865 45.5,10.5C 45.8333,10.5 46.1667,10.5 46.5,10.5C 49.5173,13.1977 51.5173,16.5311 52.5,20.5C 49.7273,17.6504 46.7273,15.6504 43.5,14.5C 41.6176,18.4151 42.6176,21.2484 46.5,23C 43.9976,23.1712 41.331,23.3379 38.5,23.5C 39.1465,21.8439 39.8131,20.1772 40.5,18.5C 38.7048,14.6574 36.5381,14.6574 34,18.5C 32.9055,20.0779 32.0722,21.7446 31.5,23.5C 30.5,23.5 29.5,23.5 28.5,23.5C 26.9676,20.9426 25.3009,18.4426 23.5,16C 21.3047,15.2883 19.6381,15.9549 18.5,18C 20.716,22.2687 23.0494,26.4354 25.5,30.5C 23.5699,34.2734 21.4033,37.9401 19,41.5C 18.7625,44.6497 20.2625,45.8164 23.5,45C 25.3771,42.079 27.3771,39.2456 29.5,36.5C 31.9923,39.1631 34.3256,41.9964 36.5,45C 38.92,45.9149 40.2534,45.0815 40.5,42.5C 40.0163,40.1992 39.0163,38.1992 37.5,36.5C 38.5,36.5 39.5,36.5 40.5,36.5C 41.1667,38.8333 41.8333,41.1667 42.5,43.5C 44.5,43.5 46.5,43.5 48.5,43.5C 48.9477,40.8282 50.281,38.8282 52.5,37.5C 51.2263,43.0535 48.2263,47.3868 43.5,50.5C 41.7028,51.7298 39.7028,52.3964 37.5,52.5C 39.8336,51.1791 41.5003,49.6791 42.5,48C 41.5838,47.6258 40.7504,47.1258 40,46.5C 37.8416,47.8259 36.0082,49.4925 34.5,51.5C 32.7299,50.1804 32.3966,48.6804 33.5,47C 30.9538,45.1344 28.7871,45.6344 27,48.5C 24.0964,46.7732 20.9297,46.1065 17.5,46.5C 17.7771,43.5525 17.4438,40.7191 16.5,38C 18.5662,35.6558 20.5662,33.3225 22.5,31C 22.1377,29.7753 21.6377,28.6086 21,27.5C 20.0201,29.0589 19.1867,30.7256 18.5,32.5C 17.7132,31.7579 17.0465,30.9246 16.5,30C 19.7909,27.668 20.2909,24.8347 18,21.5C 17.5488,23.9288 16.7155,24.0955 15.5,22C 16.92,19.5346 17.2533,17.0346 16.5,14.5C 15.2798,15.7111 14.1131,15.7111 13,14.5C 12.0754,15.0465 11.2421,15.7132 10.5,16.5C 11.5481,18.4559 12.0481,20.4559 12,22.5C 10.3333,21.1667 8.66667,21.1667 7,22.5C 6.50115,26.4862 6.33449,30.4862 6.5,34.5C 5.51836,31.0381 5.18503,27.3714 5.5,23.5C 5.5,22.5 5.5,21.5 5.5,20.5C 8.55535,13.7789 13.5554,9.1122 20.5,6.5 Z"/></g>
<g><path style="opacity:1" fill="#f90503" d="M 37.5,52.5 C 32.4889,52.6659 27.4889,52.4993 22.5,52C 19.27,50.1979 15.9367,48.6979 12.5,47.5C 9.27189,44.931 7.27189,41.5977 6.5,37.5C 6.5,36.5 6.5,35.5 6.5,34.5C 6.33449,30.4862 6.50115,26.4862 7,22.5C 8.66667,21.1667 10.3333,21.1667 12,22.5C 12.0481,20.4559 11.5481,18.4559 10.5,16.5C 11.2421,15.7132 12.0754,15.0465 13,14.5C 14.1131,15.7111 15.2798,15.7111 16.5,14.5C 17.2533,17.0346 16.92,19.5346 15.5,22C 16.7155,24.0955 17.5488,23.9288 18,21.5C 20.2909,24.8347 19.7909,27.668 16.5,30C 17.0465,30.9246 17.7132,31.7579 18.5,32.5C 19.1867,30.7256 20.0201,29.0589 21,27.5C 21.6377,28.6086 22.1377,29.7753 22.5,31C 20.5662,33.3225 18.5662,35.6558 16.5,38C 17.4438,40.7191 17.7771,43.5525 17.5,46.5C 20.9297,46.1065 24.0964,46.7732 27,48.5C 28.7871,45.6344 30.9538,45.1344 33.5,47C 32.3966,48.6804 32.7299,50.1804 34.5,51.5C 36.0082,49.4925 37.8416,47.8259 40,46.5C 40.7504,47.1258 41.5838,47.6258 42.5,48C 41.5003,49.6791 39.8336,51.1791 37.5,52.5 Z"/></g>
<g><path style="opacity:1" fill="#fa0202" d="M 52.5,20.5 C 52.5,26.1667 52.5,31.8333 52.5,37.5C 50.281,38.8282 48.9477,40.8282 48.5,43.5C 46.5,43.5 44.5,43.5 42.5,43.5C 41.8333,41.1667 41.1667,38.8333 40.5,36.5C 39.5,36.5 38.5,36.5 37.5,36.5C 37.5,36.1667 37.5,35.8333 37.5,35.5C 37.1062,34.0328 36.7728,32.5328 36.5,31C 37.8599,28.7298 38.5266,26.2298 38.5,23.5C 41.331,23.3379 43.9976,23.1712 46.5,23C 42.6176,21.2484 41.6176,18.4151 43.5,14.5C 46.7273,15.6504 49.7273,17.6504 52.5,20.5 Z"/></g>
<g><path style="opacity:1" fill="#fef2f1" d="M 28.5,23.5 C 29.5,26.1667 30.5,26.1667 31.5,23.5C 32.0722,21.7446 32.9055,20.0779 34,18.5C 36.5381,14.6574 38.7048,14.6574 40.5,18.5C 39.8131,20.1772 39.1465,21.8439 38.5,23.5C 36.6098,25.5901 34.9431,27.9235 33.5,30.5C 34.6125,32.4192 35.9458,34.0858 37.5,35.5C 37.5,35.8333 37.5,36.1667 37.5,36.5C 39.0163,38.1992 40.0163,40.1992 40.5,42.5C 40.2534,45.0815 38.92,45.9149 36.5,45C 34.3256,41.9964 31.9923,39.1631 29.5,36.5C 27.3771,39.2456 25.3771,42.079 23.5,45C 20.2625,45.8164 18.7625,44.6497 19,41.5C 21.4033,37.9401 23.5699,34.2734 25.5,30.5C 23.0494,26.4354 20.716,22.2687 18.5,18C 19.6381,15.9549 21.3047,15.2883 23.5,16C 25.3009,18.4426 26.9676,20.9426 28.5,23.5 Z"/></g>
<g><path style="opacity:1" fill="#d0605f" d="M 28.5,23.5 C 29.5,23.5 30.5,23.5 31.5,23.5C 30.5,26.1667 29.5,26.1667 28.5,23.5 Z"/></g>
<g><path style="opacity:1" fill="#ce423b" d="M 5.5,23.5 C 5.18503,27.3714 5.51836,31.0381 6.5,34.5C 6.5,35.5 6.5,36.5 6.5,37.5C 4.9532,35.1934 4.28653,32.5267 4.5,29.5C 4.50465,27.3035 4.83798,25.3035 5.5,23.5 Z"/></g>
<g><path style="opacity:1" fill="#e23128" d="M 38.5,23.5 C 38.5266,26.2298 37.8599,28.7298 36.5,31C 36.7728,32.5328 37.1062,34.0328 37.5,35.5C 35.9458,34.0858 34.6125,32.4192 33.5,30.5C 34.9431,27.9235 36.6098,25.5901 38.5,23.5 Z"/></g>
<g><path style="opacity:1" fill="#d9251f" d="M 52.5,20.5 C 53.973,23.0169 54.6397,25.8502 54.5,29C 54.6397,32.1498 53.973,34.9831 52.5,37.5C 52.5,31.8333 52.5,26.1667 52.5,20.5 Z"/></g>
<g><path style="opacity:1" fill="#80c312" d="M 59.5,37.5 C 59.5,44.8333 59.5,52.1667 59.5,59.5C 52.1667,59.5 44.8333,59.5 37.5,59.5C 47.2453,54.4214 54.5787,47.0881 59.5,37.5 Z"/></g>
<g><path style="opacity:1" fill="#fbf6f1" d="M 5.5,20.5 C 5.5,21.5 5.5,22.5 5.5,23.5C 4.83798,25.3035 4.50465,27.3035 4.5,29.5C 4.28653,32.5267 4.9532,35.1934 6.5,37.5C 7.27189,41.5977 9.27189,44.931 12.5,47.5C 19.7974,54.5836 28.1307,56.2502 37.5,52.5C 39.7028,52.3964 41.7028,51.7298 43.5,50.5C 43.2786,51.7348 42.6119,52.7348 41.5,53.5C 38.2665,54.0409 35.4331,55.3742 33,57.5C 29.2001,56.2705 25.3667,56.2705 21.5,57.5C 16.8904,57.029 12.8904,55.1957 9.5,52C 5.77382,47.3615 2.44049,42.5282 -0.5,37.5C -0.5,32.1667 -0.5,26.8333 -0.5,21.5C 0.166667,21.5 0.5,21.1667 0.5,20.5C 1.06521,18.58 2.06521,16.9133 3.5,15.5C 4.15149,14.9094 4.81815,14.2427 5.5,13.5C 5.83333,14.1667 6.16667,14.8333 6.5,15.5C 5.95374,17.1347 5.62041,18.8014 5.5,20.5 Z"/></g>
<g><path style="opacity:1" fill="#faf9f3" d="M 37.5,0.5 C 47.6746,4.50864 55.0079,11.5086 59.5,21.5C 59.5,26.8333 59.5,32.1667 59.5,37.5C 54.5787,47.0881 47.2453,54.4214 37.5,59.5C 32.5,59.5 27.5,59.5 22.5,59.5C 22.1667,58.8333 21.8333,58.1667 21.5,57.5C 25.3667,56.2705 29.2001,56.2705 33,57.5C 35.4331,55.3742 38.2665,54.0409 41.5,53.5C 42.6119,52.7348 43.2786,51.7348 43.5,50.5C 48.2263,47.3868 51.2263,43.0535 52.5,37.5C 53.973,34.9831 54.6397,32.1498 54.5,29C 54.6397,25.8502 53.973,23.0169 52.5,20.5C 51.5173,16.5311 49.5173,13.1977 46.5,10.5C 43.7679,6.9053 40.7679,3.57196 37.5,0.5 Z"/></g>
<g><path style="opacity:1" fill="#79b710" d="M -0.5,37.5 C 2.44049,42.5282 5.77382,47.3615 9.5,52C 12.8904,55.1957 16.8904,57.029 21.5,57.5C 21.8333,58.1667 22.1667,58.8333 22.5,59.5C 14.8333,59.5 7.16667,59.5 -0.5,59.5C -0.5,52.1667 -0.5,44.8333 -0.5,37.5 Z"/></g>
<g><path style="opacity:1" fill="#db2721" d="M 12.5,47.5 C 15.9367,48.6979 19.27,50.1979 22.5,52C 27.4889,52.4993 32.4889,52.6659 37.5,52.5C 28.1307,56.2502 19.7974,54.5836 12.5,47.5 Z"/></g>
</svg>
